<?xml version="1.0" encoding="UTF-8"?>
<svg version="1.1" xmlns="http://www.w3.org/2000/svg" width="425" height="151">
<path d="M0 0 C4.29 0 8.58 0 13 0 C13 4.29 13 8.58 13 13 C9.04 13 5.08 13 1 13 C1 17.29 1 21.58 1 26 C-3.29 26 -7.58 26 -12 26 C-12.0928125 28.2275 -12.0928125 28.2275 -12.1875 30.5 C-12.96691691 38.26123599 -17.02075096 44.08372857 -23 49 C-29.16021981 52.79897712 -32.49472396 54 -40 54 C-40 72.81 -40 91.62 -40 111 C-49.57626235 111 -55.45467783 109.09780106 -62.49609375 102.64453125 C-68.15345348 96.45817165 -69.15551236 90.27714965 -69.09765625 82.171875 C-69.0962413 81.42286926 -69.09482635 80.67386353 -69.09336853 79.90216064 C-69.08778659 77.51806588 -69.07523745 75.13406622 -69.0625 72.75 C-69.05748266 71.13020969 -69.05292016 69.51041791 -69.04882812 67.890625 C-69.03867544 63.92701752 -69.01909665 59.96361479 -69 56 C-78.9 56 -88.8 56 -99 56 C-99 46.8076148 -97.10224466 40.79439294 -91.1015625 33.78125 C-84.1984399 27.34197359 -77.20141568 25.7188606 -68 25 C-67.505 32.92 -67.505 32.92 -67 41 C-65.68 39.02 -64.36 37.04 -63 35 C-61.2109375 32.98828125 -61.2109375 32.98828125 -59.375 31.3125 C-58.78460938 30.75175781 -58.19421875 30.19101562 -57.5859375 29.61328125 C-48.6097143 24.01331119 -38.55625965 24.63275091 -28.375 24.8125 C-26.87891979 24.8275808 -25.3828248 24.84126317 -23.88671875 24.85351562 C-20.25750032 24.88623695 -16.62884752 24.93782944 -13 25 C-13 21.04 -13 17.08 -13 13 C-8.71 13 -4.42 13 0 13 C0 8.71 0 4.42 0 0 Z " fill="#372878" transform="translate(100,7)"/>
<path d="M0 0 C7.22737941 5.89565499 11.56728795 13.41957579 13.03515625 22.66015625 C13.85254124 33.77344839 12.12416381 43.80350005 5.03515625 52.66015625 C-1.81649859 59.99157686 -9.89685178 64.17845824 -19.9453125 64.86328125 C-31.72924547 65.035519 -41.24600288 62.76371866 -50.09765625 54.72265625 C-58.05830724 46.49762939 -60.61313814 37.89445882 -60.43139648 26.57739258 C-59.95680137 16.38512879 -56.65926267 9.22860837 -49.60546875 1.89453125 C-35.32025008 -10.19296147 -15.10930956 -10.84565959 0 0 Z M-35.83984375 20.78515625 C-37.52968626 25.10364267 -37.62445358 29.08686145 -36.96484375 33.66015625 C-34.80181346 38.06632906 -32.55369451 40.82461595 -27.96484375 42.66015625 C-23.22736418 43.37077819 -19.90663176 43.13105026 -15.58984375 40.97265625 C-12.17133194 37.96111013 -10.27523964 35.94788892 -9.6484375 31.328125 C-9.38270723 25.61063816 -9.99637223 22.05765172 -13.96484375 17.66015625 C-17.65391081 14.49809877 -21.04375107 14.13631841 -25.75 14.30859375 C-30.24659243 15.02233858 -32.91809026 17.47383562 -35.83984375 20.78515625 Z " fill="#000000" transform="translate(410.96484375,54.33984375)"/>
<path d="M0 0 C7.21986895 5.9071655 11.77388371 12.02629083 13.75 21.25 C14.38918221 28.62286787 14.12809701 36.04714821 14 43.4375 C13.97990364 45.45896667 13.96165842 47.48045264 13.9453125 49.50195312 C13.90499361 54.41884134 13.82666156 59.33301244 13.75 64.25 C6.49 64.25 -0.77 64.25 -8.25 64.25 C-8.27578125 61.671875 -8.3015625 59.09375 -8.328125 56.4375 C-8.36662487 53.91867525 -8.41175926 51.40004975 -8.45751953 48.88134766 C-8.48560703 47.14153686 -8.50688194 45.40160135 -8.52099609 43.66162109 C-8.54259653 41.1487703 -8.58932986 38.63739967 -8.640625 36.125 C-8.64185364 35.35696045 -8.64308228 34.5889209 -8.64434814 33.79760742 C-8.78874775 28.37738613 -9.90736698 23.63797447 -13.25 19.25 C-17.50729671 16.68863833 -21.39937972 16.72068366 -26.25 17.25 C-29.28190374 18.30457521 -30.61802687 19.21261015 -32.28515625 21.94921875 C-34.26944048 26.32151604 -34.68271812 29.84720161 -33.14453125 34.42578125 C-31.47829335 37.82374239 -29.65142218 39.7550689 -26.25 41.25 C-21.60741598 42.23745384 -16.97406201 42.81642171 -12.25 43.25 C-12.87057657 45.81364399 -13.49629199 48.37584926 -14.125 50.9375 C-14.29902344 51.65873047 -14.47304687 52.37996094 -14.65234375 53.12304688 C-15.60097866 56.97028845 -16.65490841 60.60715569 -18.25 64.25 C-28.84079293 64.98746334 -38.03466762 62.87974545 -46.3984375 56.08203125 C-54.16841905 48.39401153 -57.51698222 40.4313994 -57.625 29.5 C-57.55761573 19.07348738 -55.0135912 10.93810093 -47.66796875 3.26171875 C-33.54586626 -8.48768801 -15.66041058 -8.43252878 0 0 Z " fill="#000000" transform="translate(226.25,52.75)"/>
<path d="M0 0 C7.92 0 15.84 0 24 0 C28.84112558 9.59878348 33.57132358 19.20323095 38 29 C39.56430633 26.04261855 41.12609653 23.08391495 42.6875 20.125 C43.12255859 19.30257812 43.55761719 18.48015625 44.00585938 17.6328125 C44.65844727 16.3953125 44.65844727 16.3953125 45.32421875 15.1328125 C45.71697998 14.38918457 46.10974121 13.64555664 46.5144043 12.87939453 C48.71833971 8.60770773 50.85036564 4.29926872 53 0 C60.92 0 68.84 0 77 0 C73.6875 6.625 73.6875 6.625 72.52758789 8.94262695 C70.46909124 13.05628549 68.41654761 17.17280812 66.37109375 21.29296875 C60.76116599 32.57923776 55.0873576 43.82475652 49.109375 54.92138672 C48.06081627 56.8860498 47.04392348 58.86433109 46.03125 60.84765625 C45.4434375 61.94980469 44.855625 63.05195312 44.25 64.1875 C43.76015625 65.12980469 43.2703125 66.07210937 42.765625 67.04296875 C41 69 41 69 37.796875 69.30078125 C36.87390625 69.20152344 35.9509375 69.10226563 35 69 C29.65108188 60.01872202 24.85323503 50.84080839 20.22070312 41.47265625 C17.12760761 35.22657125 13.95235876 29.03297618 10.6875 22.875 C0 2.6842453 0 2.6842453 0 0 Z " fill="#000000" transform="translate(237,49)"/>
<path d="M0 0 C7.26 0 14.52 0 22 0 C22 4.62 22 9.24 22 14 C27.94 14 33.88 14 40 14 C40 20.93 40 27.86 40 35 C34.06 35 28.12 35 22 35 C22.12375 37.866875 22.2475 40.73375 22.375 43.6875 C22.40899902 44.58170654 22.44299805 45.47591309 22.47802734 46.3972168 C22.68618029 50.59653756 22.89492875 54.2552644 25 58 C28.63719605 60.42479736 30.85703482 60.38662577 35.1875 60.625 C36.45980469 60.69976562 37.73210937 60.77453125 39.04296875 60.8515625 C40.01878906 60.90054688 40.99460938 60.94953125 42 61 C40.68882339 68.11120489 38.98279484 75.04699943 37 82 C15.53203097 82.83370754 15.53203097 82.83370754 8.01953125 76.26953125 C-0.25043509 67.72674127 -0.43018182 58.18985671 -0.29296875 46.77734375 C-0.2873616 45.42257664 -0.2830968 44.06780337 -0.28010559 42.71302795 C-0.26874466 39.17675474 -0.23935521 35.64086127 -0.20599365 32.10473633 C-0.1751019 28.48458999 -0.16155978 24.86438126 -0.14648438 21.24414062 C-0.11447516 14.16259177 -0.06178092 7.08136091 0 0 Z " fill="#000000" transform="translate(125,35)"/>
<path d="M0 0 C0.7209082 0.00249756 1.44181641 0.00499512 2.18457031 0.00756836 C3.53953613 0.02122437 3.53953613 0.02122437 4.921875 0.03515625 C9.253125 0.06609375 9.253125 0.06609375 13.671875 0.09765625 C13.671875 7.02765625 13.671875 13.95765625 13.671875 21.09765625 C10.371875 21.42765625 7.071875 21.75765625 3.671875 22.09765625 C0.42337523 23.81992121 0.42337523 23.81992121 -0.328125 27.09765625 C-0.44078047 28.46280939 -0.50395086 29.83242837 -0.53344727 31.2019043 C-0.55339249 32.02252853 -0.57333771 32.84315277 -0.59388733 33.68864441 C-0.61895607 35.01065605 -0.61895607 35.01065605 -0.64453125 36.359375 C-0.66531235 37.265168 -0.68609344 38.170961 -0.70750427 39.10420227 C-0.77289058 41.99777641 -0.83183404 44.89144132 -0.890625 47.78515625 C-0.9338206 49.74675418 -0.97743523 51.70834293 -1.02148438 53.66992188 C-1.12934943 58.47907499 -1.22850407 63.28829698 -1.328125 68.09765625 C-8.588125 68.09765625 -15.848125 68.09765625 -23.328125 68.09765625 C-23.39722032 61.42611962 -23.45688833 54.75583864 -23.49291992 48.08422852 C-23.50795008 45.81758401 -23.52837982 43.55096831 -23.55444336 41.28442383 C-23.59108088 38.01506412 -23.6079096 34.74609098 -23.62109375 31.4765625 C-23.63657761 30.47307266 -23.65206146 29.46958282 -23.66801453 28.4356842 C-23.66978412 20.93601754 -22.72763249 13.90867637 -18.078125 7.78515625 C-12.85253295 2.67832765 -7.35525668 -0.05253755 0 0 Z " fill="#000000" transform="translate(335.328125,48.90234375)"/>
</svg>
